Patient4_TMGait_0pt5_01_right_13_GRF.mot
version=1
nRows=65
nColumns=19
inDegrees=no
endheader
time	F1x	F1y	F1z	M1x	M1y	M1z	F2x	F2y	F2z	M2x	M2y	M2z	EC1x	EC1y	EC1z	EC2x	EC2y	EC2z
16.77	14.9187	762.8916	48.6052	-273.2359	-31.2146	616.6061	-1.3292	3.477	2.0916	-0.14165	7.1132	5.1986	-0.0592	0.0182	-0.0073	-0.0462	0.0165	0.9585
16.7829	11.3431	765.0919	49.8672	-273.5068	-33.0161	615.4899	-1.0563	3.1529	1.4943	0.20419	4.755	4.2038	-0.0592	0.0182	-0.0073	-0.0462	0.0165	0.9585
16.7957	8.377	767.3657	50.9621	-273.7068	-34.4279	614.3417	-0.79596	2.9146	0.9241	0.53283	2.8144	3.3881	-0.0592	0.0182	-0.0073	-0.0462	0.0165	0.9585
16.8086	6.2968	769.3485	51.7766	-273.7375	-35.2887	612.9483	-0.57637	2.7746	0.44779	0.81325	1.372	2.7978	-0.0592	0.0182	-0.0073	-0.0462	0.0165	0.9585
16.8214	5.2035	770.6816	52.2467	-273.5074	-35.5291	611.0331	-0.42513	2.7229	0.09208	1.0344	0.40125	2.4401	-0.0592	0.0182	-0.0073	-0.0462	0.0165	0.9585
16.8343	5.0672	771.0517	52.4008	-272.9374	-35.1962	608.3294	-0.33485	2.7164	-0.15225	1.1902	-0.17451	2.26	-0.0592	0.0182	-0.0073	-0.0462	0.0165	0.9585
16.8471	5.7824	770.2345	52.2762	-271.971	-34.3618	604.6422	-0.30847	2.7137	-0.30433	1.2789	-0.44831	2.1991	-0.0592	0.0182	-0.0073	-0.0462	0.0165	0.9585
16.86	7.2089	768.1255	51.958	-270.5853	-33.1506	599.8764	-0.32917	2.6491	-0.39529	1.2913	-0.50755	2.151	-0.0592	0.0182	-0.0073	-0.0462	0.0165	0.9585
16.8729	9.1919	764.7775	51.5058	-268.8051	-31.6696	594.0762	-0.38601	2.4396	-0.44173	1.2093	-0.43913	2.0039	-0.0592	0.0182	-0.0073	-0.0462	0.0165	0.9585
16.8857	11.5727	760.3767	51.0074	-266.6948	-30.0489	587.4035	-0.46662	1.9833	-0.46924	1.0051	-0.30018	1.6403	-0.0592	0.0182	-0.0073	-0.0462	0.0165	0.9585
16.8986	14.201	755.2348	50.5215	-264.3579	-28.392	580.1186	-0.54752	1.1657	-0.4884	0.64413	-0.13916	0.93799	-0.0592	0.0182	-0.0073	-0.0462	0.0165	0.9585
16.9114	16.9284	749.7295	50.1175	-261.9223	-26.8094	572.5289	-0.61381	-0.11628	-0.51113	0.09306	0.02048	-0.20109	-0.0592	0.0182	-0.0073	-0.0462	0.0165	0.9585
16.9243	19.6461	744.2384	49.8402	-259.5225	-25.3777	564.9348	-0.61713	-1.9326	-0.53093	-0.66917	0.1422	-1.8485	-0.0592	0.0182	-0.0073	-0.0462	0.0165	0.9585
16.9371	22.2726	739.1149	49.7344	-257.2843	-24.1553	557.6124	-0.51935	-4.2361	-0.53645	-1.6225	0.19172	-3.9505	-0.0592	0.0182	-0.0073	-0.0462	0.0165	0.9585
16.95	24.7858	734.6598	49.8279	-255.3145	-23.163	550.7745	-0.24901	-6.8315	-0.49867	-2.6848	0.11492	-6.3374	-0.0592	0.0182	-0.0073	-0.0462	0.0165	0.9585
16.9629	27.2016	731.1003	50.1409	-253.6898	-22.3991	544.573	0.26413	-9.2681	-0.38447	-3.6721	-0.14459	-8.5857	-0.0592	0.0182	-0.0073	-0.0462	0.0165	0.9585
16.9757	29.5839	728.5621	50.6891	-252.4452	-21.8378	539.078	1.1084	-10.7705	-0.14479	-4.2659	-0.66701	-9.9712	-0.0592	0.0182	-0.0073	-0.0462	0.0165	0.9585
16.9886	32.0093	727.0497	51.4783	-251.5704	-21.4438	534.284	2.3452	-10.1348	0.27238	-3.9744	-1.5226	-9.3731	-0.0592	0.0182	-0.0073	-0.0462	0.0165	0.9585
17.0014	34.5709	726.4319	52.4793	-251.0088	-21.1586	530.0893	3.9931	-5.6832	0.91792	-2.1138	-2.7588	-5.2355	-0.0592	0.0182	-0.0073	-0.0462	0.0165	0.9585
17.0143	37.3276	726.4262	53.5909	-250.6552	-20.8884	526.3132	5.9788	4.6982	1.8244	2.1748	-4.3679	4.3889	-0.0592	0.0182	-0.0073	-0.0462	0.0165	0.9585
17.0271	40.2924	726.4998	54.6487	-250.3238	-20.5183	522.6184	8.0639	23.3877	2.982	9.8521	-6.2374	21.6902	-0.0592	0.0182	-0.0073	-0.0462	0.0165	0.9585
17.04	43.4175	725.6941	55.4318	-249.6901	-19.9186	518.3948	9.8009	52.6152	4.3027	21.8128	-8.0963	48.7151	-0.0592	0.0182	-0.0073	-0.0462	0.0165	0.9585
17.0529	46.5679	722.4615	55.6937	-248.2342	-18.9729	512.6542	10.4232	93.766	5.5743	38.5986	-9.4391	86.7511	-0.0592	0.0182	-0.0073	-0.0462	0.0165	0.9585
17.0657	49.5434	714.657	55.1602	-245.2385	-17.5759	504.0011	8.8289	146.2783	6.4226	59.9521	-9.4795	135.2705	-0.0592	0.0182	-0.0073	-0.0462	0.0165	0.9585
17.0786	52.0311	699.7649	53.5854	-239.862	-15.6815	490.7926	3.7984	206.4434	6.2188	84.3215	-7.1707	190.8542	-0.0592	0.0182	-0.0073	-0.0462	0.0165	0.9585
17.0914	53.6606	675.3719	50.7966	-231.3018	-13.3121	471.4415	-4.3899	267.4374	4.2219	108.8622	-1.9587	247.2253	-0.0592	0.0182	-0.0073	-0.0462	0.0165	0.9585
17.1043	54.0359	639.8335	46.8058	-219.0118	-10.6205	444.8819	-13.8047	321.5808	-0.010909	130.4372	5.7572	297.1328	-0.0592	0.0182	-0.0073	-0.0462	0.0165	0.9585
17.1171	52.8492	592.8298	41.8635	-202.8772	-7.88	410.929	-22.5365	365.0594	-5.9985	147.51	14.7499	336.8617	-0.0592	0.0182	-0.0073	-0.0462	0.0165	0.9585
17.13	49.9586	535.481	36.408	-183.2566	-5.4194	370.3357	-29.4373	398.6512	-12.843	160.4442	23.7248	366.9712	-0.0592	0.0182	-0.0073	-0.0462	0.0165	0.9585
17.1429	45.4106	470.1786	30.8754	-160.935	-3.4969	324.6975	-34.1098	425.7965	-19.6346	170.7004	31.6867	390.5939	-0.0592	0.0182	-0.0073	-0.0462	0.0165	0.9585
17.1557	39.3815	400.1859	25.5554	-137.0054	-2.2313	276.1755	-36.77	450.8913	-25.756	180.1211	38.175	411.7764	-0.0592	0.0182	-0.0073	-0.0462	0.0165	0.9585
17.1686	32.147	329.2252	20.5976	-112.7273	-1.6234	227.246	-37.8912	478.0303	-30.8151	190.4174	43.0384	434.2388	-0.0592	0.0182	-0.0073	-0.0462	0.0165	0.9585
17.1814	24.1278	261.0259	16.0894	-89.3771	-1.5879	180.3807	-37.9971	510.2648	-34.8654	202.8395	46.5475	460.7275	-0.0592	0.0182	-0.0073	-0.0462	0.0165	0.9585
17.1943	15.9225	198.8695	12.1149	-68.0856	-1.9715	137.7473	-37.537	548.9277	-38.1973	217.9127	49.1444	492.4433	-0.0592	0.0182	-0.0073	-0.0462	0.0165	0.9585
17.2071	8.2639	145.1007	8.7588	-49.6658	-2.5672	100.8597	-36.8845	593.252	-41.2895	235.2967	51.4008	528.7376	-0.0592	0.0182	-0.0073	-0.0462	0.0165	0.9585
17.22	1.7796	100.8343	6.0579	-34.5064	-3.173	70.4286	-36.3291	640.6697	-44.5191	253.9248	53.7576	567.3801	-0.0592	0.0182	-0.0073	-0.0462	0.0165	0.9585
17.2329	-3.1449	66.0265	3.9729	-22.5958	-3.618	46.4092	-36.0552	687.6585	-48.1192	272.3547	56.4941	605.3354	-0.0592	0.0182	-0.0073	-0.0462	0.0165	0.9585
17.2457	-6.33	39.8577	2.4375	-13.6493	-3.7932	28.2644	-36.0776	730.7026	-51.9618	289.1736	59.5087	639.5837	-0.0592	0.0182	-0.0073	-0.0462	0.0165	0.9585
17.2586	-7.7587	21.1124	1.3439	-7.2456	-3.621	15.203	-36.2849	766.8405	-55.7555	303.2104	62.5082	667.6038	-0.0592	0.0182	-0.0073	-0.0462	0.0165	0.9585
17.2714	-7.621	8.4451	0.59338	-2.9229	-3.111	6.3206	-36.4651	793.8797	-59.178	313.6129	65.1333	687.5473	-0.0592	0.0182	-0.0073	-0.0462	0.0165	0.9585
17.2843	-6.4829	0.6495	0.10543	-0.26708	-2.4088	0.81462	-36.3988	810.542	-62.0217	319.8995	67.1245	698.362	-0.0592	0.0182	-0.0073	-0.0462	0.0165	0.9585
17.2971	-4.9599	-3.4346	-0.16287	1.1205	-1.707	-2.0905	-35.8983	816.7149	-64.141	322.0582	68.2914	699.9872	-0.0592	0.0182	-0.0073	-0.0462	0.0165	0.9585
17.31	-3.4451	-4.9486	-0.27937	1.6304	-1.0994	-3.1702	-34.8169	813.642	-65.5001	320.6083	68.5633	693.5098	-0.0592	0.0182	-0.0073	-0.0462	0.0165	0.9585
17.3229	-2.1406	-4.8672	-0.2958	1.5969	-0.6266	-3.1084	-33.0943	803.7246	-66.109	316.5236	67.9368	680.9755	-0.0592	0.0182	-0.0073	-0.0462	0.0165	0.9585
17.3357	-1.1284	-3.9309	-0.26144	1.2756	-0.28717	-2.4353	-30.736	789.994	-66.0698	311.0222	66.5156	664.9221	-0.0592	0.0182	-0.0073	-0.0462	0.0165	0.9585
17.3486	-0.4152	-2.6665	-0.20442	0.84744	-0.065992	-1.5381	-27.8336	775.5532	-65.5022	305.3412	64.4473	647.9381	-0.0592	0.0182	-0.0073	-0.0462	0.0165	0.9585
17.3614	0.035285	-1.3951	-0.14647	0.42128	0.063494	-0.63272	-24.5577	763.0343	-64.5537	300.5257	61.9318	632.2067	-0.0592	0.0182	-0.0073	-0.0462	0.0165	0.9585
17.3743	0.2864	-0.28677	-0.095311	0.053479	0.12773	0.15856	-21.1289	754.2768	-63.3445	297.2996	59.1573	619.2599	-0.0592	0.0182	-0.0073	-0.0462	0.0165	0.9585
17.3871	0.39174	0.58514	-0.058471	-0.23399	0.1508	0.78627	-17.7735	750.1655	-61.9986	296.0001	56.3136	609.8605	-0.0592	0.0182	-0.0073	-0.0462	0.0165	0.9585
17.4	0.3896	1.2184	-0.028109	-0.44273	0.13898	1.2524	-14.6884	750.6246	-60.6087	296.5777	53.5505	604.0035	-0.0592	0.0182	-0.0073	-0.0462	0.0165	0.9585
17.4129	0.32481	1.6452	0.0001559	-0.58558	0.10175	1.5797	-11.9966	754.7847	-59.257	298.6644	50.9813	601.0568	-0.0592	0.0182	-0.0073	-0.0462	0.0165	0.9585
17.4257	0.21731	1.8973	0.02879	-0.67318	0.043754	1.7881	-9.726	761.2469	-57.9831	301.6787	48.6469	599.9758	-0.0592	0.0182	-0.0073	-0.0462	0.0165	0.9585
17.4386	0.085804	2.0051	0.055232	-0.71395	-0.0261	1.8797	-7.7936	768.3477	-56.8133	304.9348	46.5388	599.5179	-0.0592	0.0182	-0.0073	-0.0462	0.0165	0.9585
17.4514	-0.067957	1.9875	0.077386	-0.70904	-0.10324	1.8585	-6.037	774.4623	-55.7296	307.7669	44.5789	598.4822	-0.0592	0.0182	-0.0073	-0.0462	0.0165	0.9585
17.4643	-0.23411	1.8257	0.08935	-0.64842	-0.17708	1.6938	-4.2641	778.2821	-54.7031	309.6358	42.668	595.9141	-0.0592	0.0182	-0.0073	-0.0462	0.0165	0.9585
17.4771	-0.41565	1.4789	0.096688	-0.51789	-0.25098	1.3521	-2.2886	778.9991	-53.703	310.2021	40.7068	591.2448	-0.0592	0.0182	-0.0073	-0.0462	0.0165	0.9585
17.49	-0.60017	0.88165	0.095885	-0.29748	-0.31803	0.77801	0.0040173	776.3911	-52.7093	309.3656	38.6333	584.3652	-0.0592	0.0182	-0.0073	-0.0462	0.0165	0.9585
17.5029	-0.75077	-0.032841	0.083803	0.035849	-0.36456	-0.07866	2.6503	770.815	-51.7079	307.2616	36.4245	575.6029	-0.0592	0.0182	-0.0073	-0.0462	0.0165	0.9585
17.5157	-0.81618	-1.3027	0.052676	0.49844	-0.35935	-1.2553	5.5948	763.0164	-50.7247	304.181	34.1214	565.5663	-0.0592	0.0182	-0.0073	-0.0462	0.0165	0.9585
17.5286	-0.71608	-2.9128	0.0022941	1.0866	-0.27199	-2.7467	8.7067	753.919	-49.8241	300.4889	31.8164	554.982	-0.0592	0.0182	-0.0073	-0.0462	0.0165	0.9585
17.5414	-0.3447	-4.7454	-0.067408	1.7591	-0.064987	-4.4415	11.848	744.5303	-49.0951	296.5843	29.6287	544.6152	-0.0592	0.0182	-0.0073	-0.0462	0.0165	0.9585
17.5543	0.44127	-6.5261	-0.1455	2.4152	0.30024	-6.0944	14.9044	735.8239	-48.6285	292.8535	27.6758	535.1713	-0.0592	0.0182	-0.0073	-0.0462	0.0165	0.9585
17.5671	1.7743	-7.7631	-0.22212	2.8729	0.86421	-7.2581	17.7707	728.5824	-48.4924	289.6093	26.051	527.1895	-0.0592	0.0182	-0.0073	-0.0462	0.0165	0.9585
17.58	3.788	-7.6864	-0.27535	2.8466	1.6543	-7.2492	20.3613	723.271	-48.7109	287.041	24.8037	520.9633	-0.0592	0.0182	-0.0073	-0.0462	0.0165	0.9585
17.5929	6.5393	-5.1991	-0.27464	1.9306	2.6633	-5.0728	22.6156	719.8962	-49.2488	285.1626	23.9255	516.442	-0.0592	0.0182	-0.0073	-0.0462	0.0165	0.9585
